<?xml version="1.0" encoding="utf-8"?>
<svg xmlns="http://www.w3.org/2000/svg" viewBox="1.9997 12 60.0003 38" width="60.0003px" height="38px"><g id="object-0"><path d="M61.922,36.611h0L58.477,28H60a1,1,0,0,0,0-2H56.22A2.981,2.981,0,0,0,57,24a3,3,0,0,0,0-6H55.5l-2.7-3.6A1,1,0,0,0,52,14H41.875a1,1,0,0,0-.905.575L39.364,18H37a3,3,0,0,0-3,3,2.966,2.966,0,0,0,.184,1H32V13a1,1,0,0,0-2,0v9H28V19a1,1,0,0,0-1-1h-.382L24.9,14.553A1,1,0,0,0,24,14H16a1,1,0,0,0-.707.293L11.586,18H10a3,3,0,0,0-3,3v2a1,1,0,0,0,1,1h3a2.961,2.961,0,0,0,.368,1.409L11.22,26H3a1,1,0,0,0,0,2h8V43.35L2.594,47.086A1,1,0,0,0,3,49a.987.987,0,0,0,.405-.086l8.725-3.878A3.933,3.933,0,0,0,12,46a4,4,0,0,0,8,0,3.939,3.939,0,0,0-.142-1H22v3a1,1,0,0,0,1,1H43a1,1,0,0,0,1-1V45h2.142A3.939,3.939,0,0,0,46,46a4,4,0,0,0,8,0,3.939,3.939,0,0,0-.142-1h.607l1.7,2.555A1,1,0,0,0,57,48h4a1,1,0,0,0,1-1V37a1,1,0,0,0-.071-.371ZM59.523,36H51V32h6.923ZM43,43H38.22A2.981,2.981,0,0,0,39,41h1a3,3,0,0,0,0-6H38.414l-3.707-3.707A1,1,0,0,0,34,31H26a1,1,0,0,0-.895.553L23.382,35H23a3,3,0,0,0,0,6,2.981,2.981,0,0,0,.78,2H18.618a3.927,3.927,0,0,0-5.236,0H13V28H45V43ZM23,39a1,1,0,0,1,0-2H40a1,1,0,0,1,0,2H38.22a2.964,2.964,0,0,0-4.44,0H28.22a2.964,2.964,0,0,0-4.44,0Zm10.586-6,2,2H32V33ZM30,35H25.618l1-2H30Zm6,5a1,1,0,1,1-1,1A1,1,0,0,1,36,40ZM26,40a1,1,0,1,1-1,1A1,1,0,0,1,26,40Zm4,5v2H28V45Zm-1.78-2A2.981,2.981,0,0,0,29,41h4a2.981,2.981,0,0,0,.78,2H28.22ZM25,24a1,1,0,0,1-2,0Zm-3.22,2H16.22A2.981,2.981,0,0,0,17,24h4A2.981,2.981,0,0,0,21.78,26ZM14,25a.977.977,0,0,1-.44-.113L13.781,24H15A1,1,0,0,1,14,25Zm27-1a1,1,0,0,1-2,0Zm2,0h1.219l.5,2h-2.5A2.981,2.981,0,0,0,43,24Zm3.78,2-.5-2H51a2.981,2.981,0,0,0,.78,2ZM54,23a1,1,0,1,1-1,1A1,1,0,0,1,54,23Zm-1-5H48V16h3.5ZM42.511,16H46v2H41.573ZM36,21a1,1,0,0,1,1-1H57a1,1,0,0,1,0,2h-.78a2.964,2.964,0,0,0-4.44,0H42.22a2.964,2.964,0,0,0-4.44,0H37A1,1,0,0,1,36,21Zm1,3a2.981,2.981,0,0,0,.78,2H32V24Zm-7,2H26.22A2.981,2.981,0,0,0,27,24h3Zm-5.618-8H20V16h3.382Zm-7.968-2H18v2H14.414ZM9,22V21a1,1,0,0,1,1-1H26v1.78a2.96,2.96,0,0,0-4.22.22H16.22a2.964,2.964,0,0,0-4.44,0Zm7,26a2,2,0,1,1,2-2A2,2,0,0,1,16,48Zm8-3h2v2H24Zm8,2V45h4v2Zm10,0H38V45h4Zm8,1a2,2,0,1,1,2-2A2,2,0,0,1,50,48Zm7.535-2-1.7-2.555A1,1,0,0,0,55,43H52.618a3.927,3.927,0,0,0-5.236,0H47V28h9.323l.8,2H50a1,1,0,0,0-1,1v6a1,1,0,0,0,1,1H60v8Z" style="stroke: rgb(247, 108, 45); paint-order: fill; stroke-width: 0px; fill: rgb(247, 108, 45);"/></g></svg>