<?xml version="1.0" encoding="utf-8"?>
<!-- Generator: Adobe Illustrator 24.3.0, SVG Export Plug-In . SVG Version: 6.00 Build 0)  -->
<svg version="1.1" id="Layer_1" xmlns="http://www.w3.org/2000/svg" xmlns:xlink="http://www.w3.org/1999/xlink" x="0px" y="0px"
	 viewBox="0 0 80 80" enable-background="new 0 0 80 80" xml:space="preserve">
<g>
	<path fill="#1A171B" d="M40,25.795c-0.402,0-0.728,0.324-0.728,0.727v22.107c0,0.402,0.326,0.729,0.728,0.729
		c0.401,0,0.727-0.326,0.727-0.729V26.522C40.727,26.119,40.401,25.795,40,25.795z"/>
	<path fill="#1A171B" d="M45.091,47.078c0,0.4,0.326,0.727,0.727,0.727c0.402,0,0.727-0.326,0.727-0.727v-8.23
		c0-0.4-0.326-0.727-0.727-0.727c-0.401,0-0.727,0.326-0.727,0.727V47.078z"/>
	<path fill="#1A171B" d="M45.818,35.697c0.402,0,0.727-0.326,0.727-0.729v-6.897c0-0.4-0.326-0.727-0.727-0.727
		c-0.401,0-0.727,0.326-0.727,0.727v6.897C45.091,35.371,45.417,35.697,45.818,35.697z"/>
	<path fill="#1A171B" d="M52.363,45.526v-15.9c0-0.402-0.326-0.728-0.727-0.728s-0.727,0.326-0.727,0.728v15.9
		c0,0.402,0.326,0.729,0.727,0.729S52.363,45.928,52.363,45.526z"/>
	<path fill="#1A171B" d="M56.727,43.975c0,0.4,0.326,0.727,0.728,0.727c0.401,0,0.727-0.326,0.727-0.727v-7.066
		c0-0.4-0.326-0.727-0.727-0.727c-0.402,0-0.728,0.326-0.728,0.727V43.975z"/>
	<path fill="#1A171B" d="M57.455,34.727c0.401,0,0.727-0.326,0.727-0.727v-2.824c0-0.4-0.326-0.727-0.727-0.727
		c-0.402,0-0.728,0.326-0.728,0.727V34C56.727,34.401,57.053,34.727,57.455,34.727z"/>
	<path fill="#1A171B" d="M29.818,49.186c0.402,0,0.728-0.326,0.728-0.727V26.666c0-0.4-0.326-0.726-0.728-0.726
		c-0.401,0-0.727,0.326-0.727,0.726v21.793C29.091,48.86,29.417,49.186,29.818,49.186z"/>
	<path fill="#1A171B" d="M21.818,47.029V28.121c0-0.402-0.326-0.727-0.727-0.727c-0.401,0-0.727,0.324-0.727,0.727v18.908
		c0,0.4,0.326,0.727,0.727,0.727C21.492,47.756,21.818,47.43,21.818,47.029z"/>
	<path fill="#1A171B" d="M63.46,28.147l-19.075-5.088c-0.389-0.104-0.786,0.129-0.89,0.516c-0.103,0.389,0.127,0.787,0.515,0.891
		l18.535,4.943v16.334l-27.636,7.371V22.037l4.903,1.307c0.39,0.107,0.786-0.127,0.89-0.514c0.103-0.389-0.127-0.787-0.515-0.891
		l-5.818-1.551c-0.03-0.01-0.062-0.014-0.092-0.02c-0.072-0.01-0.142-0.008-0.215,0.004l-0.023,0.004h0l-17.431,2.906
		C16.256,23.342,16,23.645,16,24v10c0,0.4,0.326,0.727,0.727,0.727c0.402,0,0.728-0.326,0.728-0.727v-9.385l7.272-1.211v28.342
		l-7.272-1.211V37.879c0-0.402-0.326-0.727-0.728-0.727c-0.401,0-0.727,0.324-0.727,0.727v13.271c0,0.355,0.256,0.66,0.608,0.717
		l17.455,2.91c0.04,0.006,0.08,0.01,0.119,0.01c0.062,0,0.126-0.008,0.188-0.023l29.091-7.76C63.778,46.92,64,46.631,64,46.301
		V28.85C64,28.52,63.778,28.231,63.46,28.147z M33.455,53.201l-7.273-1.211V23.162l7.273-1.213V53.201z"/>
	<path fill="#1A171B" d="M60.512,51.135l-9.546,2.545c-0.388,0.104-0.619,0.502-0.515,0.891c0.087,0.326,0.38,0.539,0.703,0.539
		c0.062,0,0.125-0.008,0.188-0.023l9.546-2.547c0.388-0.102,0.618-0.502,0.515-0.889C61.299,51.262,60.903,51.031,60.512,51.135z"/>
	<path fill="#1A171B" d="M47.028,54.731l-12.882,3.436L19.51,55.727c-0.39-0.064-0.771,0.201-0.837,0.598
		c-0.065,0.396,0.202,0.771,0.598,0.836l14.791,2.467c0.04,0.006,0.08,0.01,0.119,0.01c0.063,0,0.126-0.008,0.188-0.025
		l13.034-3.475c0.388-0.104,0.618-0.502,0.515-0.891C47.815,54.86,47.418,54.627,47.028,54.731z"/>
</g>
</svg>
